<svg width="14" height="15" viewBox="0 0 14 15" fill="none" xmlns="http://www.w3.org/2000/svg">
<g clip-path="url(#clip0_6163_26810)">
<rect width="14" height="14" transform="translate(0 0.808105)" fill="white" fill-opacity="0.01"/>
<g clip-path="url(#clip1_6163_26810)">
<path d="M4.81201 5.61978C4.92804 5.61978 5.03932 5.66588 5.12137 5.74792C5.20342 5.82997 5.24951 5.94125 5.24951 6.05728V11.3073C5.24951 11.4233 5.20342 11.5346 5.12137 11.6166C5.03932 11.6987 4.92804 11.7448 4.81201 11.7448C4.69598 11.7448 4.5847 11.6987 4.50265 11.6166C4.42061 11.5346 4.37451 11.4233 4.37451 11.3073V6.05728C4.37451 5.94125 4.42061 5.82997 4.50265 5.74792C4.5847 5.66588 4.69598 5.61978 4.81201 5.61978ZM6.99951 5.61978C7.11554 5.61978 7.22682 5.66588 7.30887 5.74792C7.39092 5.82997 7.43701 5.94125 7.43701 6.05728V11.3073C7.43701 11.4233 7.39092 11.5346 7.30887 11.6166C7.22682 11.6987 7.11554 11.7448 6.99951 11.7448C6.88348 11.7448 6.7722 11.6987 6.69015 11.6166C6.60811 11.5346 6.56201 11.4233 6.56201 11.3073V6.05728C6.56201 5.94125 6.60811 5.82997 6.69015 5.74792C6.7722 5.66588 6.88348 5.61978 6.99951 5.61978ZM9.62451 6.05728C9.62451 5.94125 9.57842 5.82997 9.49637 5.74792C9.41432 5.66588 9.30304 5.61978 9.18701 5.61978C9.07098 5.61978 8.9597 5.66588 8.87765 5.74792C8.79561 5.82997 8.74951 5.94125 8.74951 6.05728V11.3073C8.74951 11.4233 8.79561 11.5346 8.87765 11.6166C8.9597 11.6987 9.07098 11.7448 9.18701 11.7448C9.30304 11.7448 9.41432 11.6987 9.49637 11.6166C9.57842 11.5346 9.62451 11.4233 9.62451 11.3073V6.05728Z" fill="#212529"/>
<path fill-rule="evenodd" clip-rule="evenodd" d="M12.687 3.43228C12.687 3.66435 12.5948 3.88691 12.4307 4.051C12.2666 4.21509 12.0441 4.30728 11.812 4.30728H11.3745V12.1823C11.3745 12.6464 11.1901 13.0915 10.8619 13.4197C10.5338 13.7479 10.0886 13.9323 9.62451 13.9323H4.37451C3.91038 13.9323 3.46526 13.7479 3.13707 13.4197C2.80889 13.0915 2.62451 12.6464 2.62451 12.1823V4.30728H2.18701C1.95495 4.30728 1.73239 4.21509 1.56829 4.051C1.4042 3.88691 1.31201 3.66435 1.31201 3.43228V2.55728C1.31201 2.32522 1.4042 2.10266 1.56829 1.93856C1.73239 1.77447 1.95495 1.68228 2.18701 1.68228H5.24951C5.24951 1.45022 5.3417 1.22766 5.50579 1.06356C5.66989 0.899469 5.89245 0.807281 6.12451 0.807281H7.87451C8.10658 0.807281 8.32914 0.899469 8.49323 1.06356C8.65732 1.22766 8.74951 1.45022 8.74951 1.68228H11.812C12.0441 1.68228 12.2666 1.77447 12.4307 1.93856C12.5948 2.10266 12.687 2.32522 12.687 2.55728V3.43228ZM3.60276 4.30728L3.49951 4.35891V12.1823C3.49951 12.4143 3.5917 12.6369 3.75579 12.801C3.91989 12.9651 4.14245 13.0573 4.37451 13.0573H9.62451C9.85658 13.0573 10.0791 12.9651 10.2432 12.801C10.4073 12.6369 10.4995 12.4143 10.4995 12.1823V4.35891L10.3963 4.30728H3.60276ZM2.18701 3.43228V2.55728H11.812V3.43228H2.18701Z" fill="#212529"/>
</g>
</g>
<defs>
<clipPath id="clip0_6163_26810">
<rect width="14" height="14" fill="white" transform="translate(0 0.808105)"/>
</clipPath>
<clipPath id="clip1_6163_26810">
<rect width="14" height="14" fill="white" transform="translate(0 0.808105)"/>
</clipPath>
</defs>
</svg>
