<svg width="12" height="14" viewBox="0 0 12 14" fill="none" xmlns="http://www.w3.org/2000/svg">
<path fill-rule="evenodd" clip-rule="evenodd" d="M7.31835 0.141113C7.34704 0.141113 7.37517 0.143534 7.40255 0.148182L7.49262 0.148713C7.62862 0.148713 7.75862 0.204047 7.85329 0.302047L11.2306 3.82005C11.3193 3.91271 11.3694 4.03738 11.3694 4.16605V10.2927C11.38 11.9654 10.076 13.3247 8.40062 13.3847H2.97395C1.34713 13.3497 0.0424222 12.0351 0.0021969 10.4249L0.00195312 3.13471C0.0412865 1.48071 1.40662 0.148713 3.04795 0.148713L7.23416 0.148182C7.26153 0.143534 7.28966 0.141113 7.31835 0.141113ZM6.81795 1.14845L3.04995 1.14871C1.94529 1.14871 1.02795 2.04338 1.00195 3.14671V10.2927C0.977953 11.4267 1.87129 12.36 2.99462 12.3847H8.38329C9.49595 12.3447 10.3766 11.4267 10.3693 10.296L10.3693 4.79645L9.03035 4.79711C7.80969 4.79378 6.81835 3.79911 6.81835 2.58045L6.81795 1.14845ZM5.42889 4.91371C5.56689 4.91371 5.69189 4.96971 5.78239 5.06021L5.78309 5.06065L7.34709 6.63131C7.54175 6.82731 7.54109 7.14331 7.34575 7.33798C7.14975 7.53265 6.83309 7.53265 6.63842 7.33665L5.92862 6.62378L5.92889 9.44105C5.92889 9.71705 5.70489 9.94105 5.42889 9.94105C5.15289 9.94105 4.92889 9.71705 4.92889 9.44105L4.92862 6.62378L4.21975 7.33665C4.12242 7.43531 3.99375 7.48398 3.86575 7.48398C3.73842 7.48398 3.61042 7.43531 3.51309 7.33798C3.31775 7.14331 3.31642 6.82731 3.51175 6.63131L5.07442 5.06065L5.09672 5.04009C5.10636 5.03151 5.11634 5.02329 5.12663 5.01547L5.07442 5.06065C5.09301 5.04199 5.11303 5.02517 5.13418 5.0102C5.21651 4.94952 5.31854 4.91371 5.42889 4.91371ZM7.81795 1.70911L7.81835 2.58045C7.81835 3.24978 8.36235 3.79511 9.03169 3.79711L9.82129 3.79645L7.81795 1.70911Z" fill="white"/>
</svg>
