<svg width="24" height="25" viewBox="0 0 24 25" fill="none" xmlns="http://www.w3.org/2000/svg">
<path d="M12 23.5581C6.07 23.5581 1.25 18.7381 1.25 12.8081C1.25 6.87811 6.07 2.05811 12 2.05811C17.93 2.05811 22.75 6.87811 22.75 12.8081C22.75 18.7381 17.93 23.5581 12 23.5581ZM12 3.55811C6.9 3.55811 2.75 7.70811 2.75 12.8081C2.75 17.9081 6.9 22.0581 12 22.0581C17.1 22.0581 21.25 17.9081 21.25 12.8081C21.25 7.70811 17.1 3.55811 12 3.55811Z" fill="#444444"/>
<path d="M9.16986 16.3881C8.97986 16.3881 8.78986 16.3181 8.63986 16.1681C8.34986 15.8781 8.34986 15.3981 8.63986 15.1081L14.2999 9.44811C14.5899 9.15811 15.0699 9.15811 15.3599 9.44811C15.6499 9.73811 15.6499 10.2181 15.3599 10.5081L9.69986 16.1681C9.55986 16.3181 9.35986 16.3881 9.16986 16.3881Z" fill="#444444"/>
<path d="M14.8299 16.3881C14.6399 16.3881 14.4499 16.3181 14.2999 16.1681L8.63986 10.5081C8.34986 10.2181 8.34986 9.73811 8.63986 9.44811C8.92986 9.15811 9.40986 9.15811 9.69986 9.44811L15.3599 15.1081C15.6499 15.3981 15.6499 15.8781 15.3599 16.1681C15.2099 16.3181 15.0199 16.3881 14.8299 16.3881Z" fill="#444444"/>
</svg>
