<svg width="16" height="17" viewBox="0 0 16 17" fill="none" xmlns="http://www.w3.org/2000/svg">
<path fill-rule="evenodd" clip-rule="evenodd" d="M9.31835 2.14111C9.34704 2.14111 9.37517 2.14353 9.40255 2.14818L9.49262 2.14871C9.62862 2.14871 9.75862 2.20405 9.85329 2.30205L13.2306 5.82005C13.3193 5.91271 13.3694 6.03738 13.3694 6.16605V12.2927C13.38 13.9654 12.076 15.3247 10.4006 15.3847H4.97395C3.34713 15.3497 2.04242 14.0351 2.0022 12.4249L2.00195 5.13471C2.04129 3.48071 3.40662 2.14871 5.04795 2.14871L9.23416 2.14818C9.26153 2.14353 9.28966 2.14111 9.31835 2.14111ZM8.81795 3.14845L5.04995 3.14871C3.94529 3.14871 3.02795 4.04338 3.00195 5.14671V12.2927C2.97795 13.4267 3.87129 14.36 4.99462 14.3847H10.3833C11.496 14.3447 12.3766 13.4267 12.3693 12.296L12.3693 6.79645L11.0304 6.79711C9.80969 6.79378 8.81835 5.79911 8.81835 4.58045L8.81795 3.14845ZM7.42889 6.91371C7.56689 6.91371 7.69189 6.96971 7.78239 7.06021L7.78309 7.06065L9.34709 8.63131C9.54175 8.82731 9.54109 9.14331 9.34575 9.33798C9.14975 9.53265 8.83309 9.53265 8.63842 9.33665L7.92862 8.62378L7.92889 11.441C7.92889 11.717 7.70489 11.941 7.42889 11.941C7.15289 11.941 6.92889 11.717 6.92889 11.441L6.92862 8.62378L6.21975 9.33665C6.12242 9.43531 5.99375 9.48398 5.86575 9.48398C5.73842 9.48398 5.61042 9.43531 5.51309 9.33798C5.31775 9.14331 5.31642 8.82731 5.51175 8.63131L7.07442 7.06065L7.09672 7.04009C7.10636 7.03151 7.11634 7.02329 7.12663 7.01547L7.07442 7.06065C7.09301 7.04199 7.11303 7.02517 7.13418 7.0102C7.21651 6.94952 7.31854 6.91371 7.42889 6.91371ZM9.81795 3.70911L9.81835 4.58045C9.81835 5.24978 10.3624 5.79511 11.0317 5.79711L11.8213 5.79645L9.81795 3.70911Z" fill="white"/>
</svg>
